<svg width="303" height="281" viewBox="0 0 303 281" fill="none" xmlns="http://www.w3.org/2000/svg">
<path d="M131.538 78H10.5275C6.37018 78 3 81.3702 3 85.5275V152.869C3 157.026 6.37018 160.396 10.5275 160.396H131.538C135.695 160.396 139.065 157.026 139.065 152.869V85.5275C139.065 81.3702 135.695 78 131.538 78Z" fill="black" fill-opacity="0.2"/>
<path d="M129.538 75.6025H8.5275C4.37018 75.6025 1 78.9727 1 83.13V150.471C1 154.629 4.37018 157.999 8.5275 157.999H129.538C133.695 157.999 137.065 154.629 137.065 150.471V83.13C137.065 78.9727 133.695 75.6025 129.538 75.6025Z" fill="white" stroke="#003366" stroke-width="0.3" stroke-miterlimit="22.9256"/>
<g clip-path="url(#clip0_185_1030)">
<path fill-rule="evenodd" clip-rule="evenodd" d="M11.9879 134.505C12.062 134.505 12.0455 134.521 12.029 134.439L12.0949 134.382C12.169 134.39 12.1443 134.398 12.1114 134.316L12.1278 134.251C12.1937 134.259 12.1772 134.275 12.169 134.218L12.2349 134.201C12.309 134.226 12.3007 134.251 12.2925 134.177C12.416 134.128 12.309 134.185 12.3501 134.111C12.4325 134.119 12.416 134.144 12.416 134.07C13.1652 133.766 13.8239 134.505 13.4946 135.211C13.3628 135.498 13.1817 135.761 13.0417 136.064C12.2102 137.902 11.8726 139.117 11.6997 141.308C11.5186 143.606 12.1278 145.928 13.0253 147.897C13.2805 148.464 13.9145 149.136 13.3464 149.752C13.1323 149.99 12.7042 150.08 12.3666 149.908C12.0702 149.76 11.9632 149.465 11.7903 149.169C11.5186 148.693 11.1728 147.922 10.9752 147.364C9.90486 144.377 9.68256 141.365 10.473 138.263C10.7694 137.09 11.3374 135.506 11.9714 134.505H11.9879Z" fill="#003366"/>
<path fill-rule="evenodd" clip-rule="evenodd" d="M16.6397 136.647C16.5326 137.041 15.8822 137.771 15.4047 139.814C14.8448 142.202 15.2894 144.886 16.4668 146.986C16.6067 147.233 16.7632 147.487 16.6232 147.848C16.5162 148.119 16.335 148.291 16.0386 148.373C15.3306 148.57 15.0671 147.93 14.8448 147.503C13.7333 145.362 13.2558 143.007 13.6263 140.241C13.8568 138.51 14.3508 137.508 15.0342 136.154C15.5858 135.063 16.8867 135.761 16.6479 136.639L16.6397 136.647Z" fill="#003366"/>
<path fill-rule="evenodd" clip-rule="evenodd" d="M19.2826 144.943C19.3485 145.091 19.4143 145.181 19.4802 145.329L19.6778 145.665C19.6778 145.657 19.6943 145.682 19.6943 145.69C19.9495 146.822 18.6404 147.233 18.1217 146.305C16.7303 143.811 16.5244 141.136 17.6689 138.559C17.8006 138.255 18.0888 137.705 18.2452 137.492C18.4675 137.197 19.0356 137.065 19.4226 137.361C19.7601 137.623 19.8507 138.083 19.5708 138.534C18.945 139.544 18.5087 141.127 18.6322 142.399C18.7721 143.803 18.8462 143.753 19.2744 144.951L19.2826 144.943Z" fill="#003366"/>
<path fill-rule="evenodd" clip-rule="evenodd" d="M22.6911 139.634C22.6582 139.946 22.403 140.184 22.2548 140.471C22.0983 140.766 21.9913 141.029 21.9337 141.382C21.7772 142.276 21.9748 143.236 22.4524 143.876C22.8229 144.369 22.7488 144.878 22.3453 145.14C21.6043 145.616 21.1597 145.001 20.8716 144.516C20.2376 143.417 19.9577 141.866 20.4435 140.471C20.6328 139.929 20.9704 139.166 21.3491 138.879C21.9172 138.444 22.757 138.928 22.6829 139.642L22.6911 139.634Z" fill="#003366"/>
<path fill-rule="evenodd" clip-rule="evenodd" d="M19.7024 145.69C19.6942 145.682 19.686 145.657 19.686 145.665L19.4884 145.329C19.4225 145.181 19.3566 145.099 19.2908 144.943C19.406 145.05 19.4637 145.239 19.5625 145.419L19.7107 145.69H19.7024Z" fill="#777777"/>
<path fill-rule="evenodd" clip-rule="evenodd" d="M12.3666 134.119C12.3337 134.193 12.4325 134.136 12.309 134.185C12.3172 134.259 12.3255 134.234 12.2514 134.21L12.1855 134.226C12.1937 134.283 12.202 134.275 12.1443 134.259L12.1279 134.324C12.1526 134.407 12.1855 134.398 12.1114 134.39L12.0455 134.448C12.062 134.53 12.0785 134.513 12.0044 134.513C12.0044 134.431 11.9797 134.439 12.0455 134.448L12.1114 134.39L12.1279 134.324C12.1032 134.242 12.0702 134.251 12.1443 134.259C12.1361 134.193 12.1196 134.21 12.1855 134.226L12.2514 134.21L12.309 134.185L12.3666 134.119C12.3584 134.054 12.3502 134.078 12.4325 134.078C12.4325 134.152 12.449 134.136 12.3666 134.119Z" fill="#777777"/>
</g>
<path fill-rule="evenodd" clip-rule="evenodd" d="M140.546 31.3896H261.442C269.067 31.3896 275.305 37.3725 275.305 44.6857V56.6552H276.911C278.142 56.6552 279.15 57.6222 279.15 58.8035V82.0493C279.15 83.2306 278.142 84.1977 276.911 84.1977H275.305V87.8422H276.911C278.142 87.8422 279.15 88.8092 279.15 89.9905V113.236C279.15 114.418 278.142 115.385 276.911 115.385H275.305V209.812H126.435V44.9242C126.435 37.4806 132.785 31.3896 140.547 31.3896H140.546Z" fill="black" fill-opacity="0.1"/>
<path fill-rule="evenodd" clip-rule="evenodd" d="M129.776 23.7895H250.673C258.297 23.7895 264.535 30.0276 264.535 37.652V50.132H266.141C267.373 50.132 268.381 51.14 268.381 52.3716V76.6087C268.381 77.8403 267.373 78.8483 266.141 78.8483H264.535V82.6475H266.141C267.373 82.6475 268.381 83.6555 268.381 84.8871V109.124C268.381 110.356 267.373 111.364 266.141 111.364H264.535V209.814H115.666V37.9017C115.666 30.1394 122.016 23.7895 129.778 23.7895H129.776Z" fill="#FDFDFD"/>
<mask id="mask0_185_1030" style="mask-type:luminance" maskUnits="userSpaceOnUse" x="115" y="23" width="154" height="187">
<path d="M129.776 23.7895H250.673C258.297 23.7895 264.535 30.0276 264.535 37.652V50.132H266.141C267.373 50.132 268.381 51.14 268.381 52.3716V76.6087C268.381 77.8403 267.373 78.8483 266.141 78.8483H264.535V82.6475H266.141C267.373 82.6475 268.381 83.6555 268.381 84.8871V109.124C268.381 110.356 267.373 111.364 266.141 111.364H264.535V209.814H115.666V37.9017C115.666 30.1394 122.016 23.7895 129.778 23.7895H129.776Z" fill="white"/>
</mask>
<g mask="url(#mask0_185_1030)">
<path fill-rule="evenodd" clip-rule="evenodd" d="M133.255 31.3394H246.9C252.694 31.3394 257.434 36.0795 257.434 41.8742V209.812H122.718V41.8742C122.718 36.0795 127.458 31.3394 133.253 31.3394H133.255Z" fill="#EAEEF5" stroke="#E6E8EA" stroke-width="0.5" stroke-miterlimit="22.9256"/>
</g>
<path fill-rule="evenodd" clip-rule="evenodd" d="M129.776 23.7895H250.673C258.297 23.7895 264.535 30.0276 264.535 37.652V50.132H266.141C267.373 50.132 268.381 51.14 268.381 52.3716V76.6087C268.381 77.8403 267.373 78.8483 266.141 78.8483H264.535V82.6475H266.141C267.373 82.6475 268.381 83.6555 268.381 84.8871V109.124C268.381 110.356 267.373 111.364 266.141 111.364H264.535V209.814H115.666V37.9017C115.666 30.1394 122.016 23.7895 129.778 23.7895H129.776Z" stroke="#001E33" stroke-miterlimit="22.9256"/>
<path d="M168.006 115.836H134.488V118.822H168.006V115.836Z" fill="#BDBFC1"/>
<path d="M193.482 130.171H134.488V133.158H193.482V130.171Z" fill="#BDBFC1"/>
<path d="M169.089 144.505H134.488V147.492H169.089V144.505Z" fill="#BDBFC1"/>
<path d="M212.899 158.839H134.488V161.826H212.899V158.839Z" fill="#BDBFC1"/>
<path d="M179.543 173.175H134.488V176.162H179.543V173.175Z" fill="#BDBFC1"/>
<path d="M191.785 95.2635C203.446 95.2635 212.899 85.8103 212.899 74.1492C212.899 62.4881 203.446 53.035 191.785 53.035C180.124 53.035 170.671 62.4881 170.671 74.1492C170.671 85.8103 180.124 95.2635 191.785 95.2635Z" fill="white" stroke="#E6E7E8" stroke-width="0.5" stroke-miterlimit="22.9256"/>
<path d="M18 210L285 209" stroke="#001E33" stroke-width="3" stroke-miterlimit="22.9256"/>
<path d="M1.10321 210.071L11.6603 210.045" stroke="#001E33" stroke-width="3" stroke-miterlimit="22.9256"/>
<path d="M291.739 209.583L302.296 209.557" stroke="#001E33" stroke-width="3" stroke-miterlimit="22.9256"/>
<path fill-rule="evenodd" clip-rule="evenodd" d="M257.399 0.124449C257.002 1.10079 258.003 3.8677 257.909 5.485C259.076 5.55207 260.03 5.29681 261.554 5.37507C271.135 5.8651 278.375 11.3132 281.524 20.376C282.083 21.9859 282.065 22.897 282.456 24.0243C283.987 23.4932 286.922 23.6982 287.751 23.0498C287.474 22.6958 286.997 19.8394 286.579 18.4904C286.346 17.7358 286.03 17.0129 285.724 16.2489C284.776 13.877 283.302 11.6728 281.651 9.61394C277.047 3.86957 269.467 0.303321 262.219 0.00706507C260.721 -0.0544219 257.852 0.310774 257.395 0.126313L257.399 0.124449Z" fill="#003366"/>
<path fill-rule="evenodd" clip-rule="evenodd" d="M258.854 10.5493C258.457 11.5256 259.458 14.2925 259.365 15.9098C261.971 16.0589 264.39 15.5819 267.682 18.0693C268.737 18.8649 270.076 20.4468 270.715 21.6486C271.707 23.5118 271.476 23.8696 272.033 25.4794C273.564 24.9484 276.499 25.1533 277.328 24.5049C277.069 24.1733 276.803 22.1982 276.115 20.5418C274.099 15.6788 269.603 11.9523 264.451 10.9126C263.892 10.8008 263.611 10.7095 263.115 10.648C261.341 10.4263 259.201 10.6927 258.85 10.5511L258.854 10.5493Z" fill="#003366"/>
<path fill-rule="evenodd" clip-rule="evenodd" d="M181.535 83.812C181.535 84.1585 181.729 84.3523 182.075 84.3523C184.926 84.3542 200.296 84.5219 201.82 84.2722C202.903 82.0289 199.866 74.6113 192.687 74.6113H190.84C185.772 74.6113 181.533 78.6247 181.533 83.812H181.535Z" fill="#BDBFC1"/>
<path fill-rule="evenodd" clip-rule="evenodd" d="M191.22 63.9387C184.524 64.9318 186.227 74.3784 192.308 73.6033C194.857 73.2791 196.888 71.1643 196.592 68.2278C196.346 65.7963 194.036 63.5213 191.22 63.9387Z" fill="#BDBFC1"/>
<path d="M35.0185 230.467H39.6945C40.6558 230.467 41.3931 230.733 41.9065 231.265C42.4198 231.797 42.6765 232.506 42.6765 233.393C42.6765 234.298 42.4058 235.026 41.8645 235.577C41.3325 236.118 40.6091 236.389 39.6945 236.389H36.3485V240.071H35.0185V230.467ZM39.6245 235.227C40.1471 235.227 40.5625 235.063 40.8705 234.737C41.1785 234.41 41.3325 233.967 41.3325 233.407C41.3325 232.837 41.1878 232.399 40.8985 232.091C40.6091 231.783 40.1845 231.629 39.6245 231.629H36.3485V235.227H39.6245ZM44.1884 229.949H45.4204V240.071H44.1884V229.949ZM49.2939 240.239C48.6592 240.239 48.0945 240.089 47.5999 239.791C47.1052 239.492 46.8579 238.951 46.8579 238.167C46.8579 237.224 47.2779 236.58 48.1179 236.235C48.9579 235.88 50.1712 235.703 51.7579 235.703V234.891C51.7579 234.461 51.6365 234.135 51.3939 233.911C51.1512 233.677 50.7125 233.561 50.0779 233.561C49.4805 233.561 49.0512 233.673 48.7899 233.897C48.5379 234.121 48.4119 234.396 48.4119 234.723V234.891H47.2219C47.2125 234.835 47.2079 234.732 47.2079 234.583C47.2079 233.929 47.4785 233.425 48.0199 233.071C48.5612 232.716 49.2845 232.539 50.1899 232.539C51.1045 232.539 51.7999 232.73 52.2759 233.113C52.7519 233.495 52.9899 234.037 52.9899 234.737V238.727C52.9899 238.895 53.0365 239.021 53.1299 239.105C53.2232 239.179 53.3399 239.217 53.4799 239.217H54.0399V240.015C53.7972 240.127 53.4799 240.183 53.0879 240.183C52.7705 240.183 52.5045 240.089 52.2899 239.903C52.0752 239.707 51.9305 239.45 51.8559 239.133H51.7579C51.5059 239.478 51.1605 239.749 50.7219 239.945C50.2925 240.141 49.8165 240.239 49.2939 240.239ZM49.6159 239.217C49.9799 239.217 50.3252 239.142 50.6519 238.993C50.9785 238.843 51.2445 238.624 51.4499 238.335C51.6552 238.036 51.7579 237.677 51.7579 237.257V236.725C50.5539 236.725 49.6485 236.823 49.0419 237.019C48.4445 237.205 48.1459 237.565 48.1459 238.097C48.1459 238.498 48.2672 238.787 48.5099 238.965C48.7619 239.133 49.1305 239.217 49.6159 239.217ZM57.8712 240.239C56.7512 240.239 55.9298 239.931 55.4072 239.315C54.8845 238.689 54.6232 237.714 54.6232 236.389C54.6232 235.073 54.8845 234.102 55.4072 233.477C55.9392 232.851 56.7605 232.539 57.8712 232.539C58.8792 232.539 59.6165 232.781 60.0832 233.267C60.5498 233.752 60.7832 234.475 60.7832 235.437H59.5232C59.5232 234.774 59.4018 234.298 59.1592 234.009C58.9258 233.71 58.4965 233.561 57.8712 233.561C57.1898 233.561 56.6905 233.785 56.3732 234.233C56.0558 234.671 55.8972 235.39 55.8972 236.389V236.445C55.8972 237.434 56.0512 238.143 56.3592 238.573C56.6672 239.002 57.1712 239.217 57.8712 239.217C58.4872 239.217 58.9258 239.063 59.1872 238.755C59.4578 238.437 59.5932 237.966 59.5932 237.341H60.7832C60.7832 238.181 60.5452 238.876 60.0692 239.427C59.5932 239.968 58.8605 240.239 57.8712 240.239ZM65.1932 240.239C64.0078 240.239 63.1258 239.926 62.5472 239.301C61.9685 238.675 61.6792 237.705 61.6792 236.389C61.6792 235.073 61.9685 234.102 62.5472 233.477C63.1258 232.851 64.0078 232.539 65.1932 232.539C66.2572 232.539 67.0505 232.823 67.5732 233.393C68.1052 233.953 68.3712 234.858 68.3712 236.109V236.725H62.9532C62.9998 237.574 63.2005 238.204 63.5552 238.615C63.9192 239.016 64.4652 239.217 65.1932 239.217C65.7812 239.217 66.2572 239.081 66.6212 238.811C66.9852 238.54 67.1672 238.125 67.1672 237.565H68.3712C68.3712 238.423 68.0725 239.086 67.4752 239.553C66.8872 240.01 66.1265 240.239 65.1932 240.239ZM67.0832 235.703C67.0832 234.275 66.4532 233.561 65.1932 233.561C64.4932 233.561 63.9658 233.729 63.6112 234.065C63.2658 234.401 63.0558 234.947 62.9812 235.703H67.0832ZM75.413 240.225C74.909 240.225 74.5403 240.075 74.307 239.777C74.0736 239.478 73.957 239.109 73.957 238.671V233.729H73.061V232.707H73.971L74.237 230.663H75.189V232.707H76.435V233.729H75.189V238.559C75.189 238.997 75.3943 239.217 75.805 239.217H76.435V240.029C76.3136 240.085 76.155 240.131 75.959 240.169C75.763 240.206 75.581 240.225 75.413 240.225ZM77.6434 229.949H78.8754V233.533H78.9734C79.4868 232.87 80.2614 232.539 81.2974 232.539C82.8281 232.539 83.5934 233.374 83.5934 235.045V240.071H82.3614V235.129C82.3614 234.541 82.2308 234.135 81.9694 233.911C81.7081 233.677 81.3301 233.561 80.8354 233.561C80.4808 233.561 80.1541 233.649 79.8554 233.827C79.5568 233.995 79.3188 234.242 79.1414 234.569C78.9641 234.895 78.8754 235.278 78.8754 235.717V240.071H77.6434V229.949ZM88.5447 240.239C87.3594 240.239 86.4774 239.926 85.8987 239.301C85.3201 238.675 85.0307 237.705 85.0307 236.389C85.0307 235.073 85.3201 234.102 85.8987 233.477C86.4774 232.851 87.3594 232.539 88.5447 232.539C89.6087 232.539 90.4021 232.823 90.9247 233.393C91.4567 233.953 91.7227 234.858 91.7227 236.109V236.725H86.3047C86.3514 237.574 86.5521 238.204 86.9067 238.615C87.2707 239.016 87.8167 239.217 88.5447 239.217C89.1327 239.217 89.6087 239.081 89.9727 238.811C90.3367 238.54 90.5187 238.125 90.5187 237.565H91.7227C91.7227 238.423 91.4241 239.086 90.8267 239.553C90.2387 240.01 89.4781 240.239 88.5447 240.239ZM90.4347 235.703C90.4347 234.275 89.8047 233.561 88.5447 233.561C87.8447 233.561 87.3174 233.729 86.9627 234.065C86.6174 234.401 86.4074 234.947 86.3327 235.703H90.4347ZM99.6185 240.239C98.9372 240.239 98.3679 240.141 97.9105 239.945C97.4625 239.739 97.1312 239.473 96.9165 239.147C96.7019 238.82 96.5945 238.465 96.5945 238.083C96.5945 237.971 96.5945 237.896 96.5945 237.859C96.6039 237.812 96.6085 237.784 96.6085 237.775H97.8265V237.915C97.8265 238.353 97.9992 238.685 98.3445 238.909C98.6899 239.123 99.1379 239.231 99.6885 239.231C100.165 239.231 100.557 239.137 100.865 238.951C101.182 238.755 101.341 238.484 101.341 238.139C101.341 237.868 101.252 237.649 101.075 237.481C100.897 237.303 100.678 237.168 100.417 237.075C100.155 236.972 99.8005 236.865 99.3525 236.753C98.8112 236.613 98.3679 236.473 98.0225 236.333C97.6865 236.193 97.3972 235.987 97.1545 235.717C96.9212 235.437 96.8045 235.077 96.8045 234.639C96.8045 233.995 97.0659 233.486 97.5885 233.113C98.1205 232.73 98.8345 232.539 99.7305 232.539C100.291 232.539 100.776 232.632 101.187 232.819C101.597 232.996 101.905 233.239 102.111 233.547C102.325 233.845 102.433 234.181 102.433 234.555L102.419 234.821H101.215V234.695C101.215 234.368 101.084 234.097 100.823 233.883C100.571 233.668 100.16 233.561 99.5905 233.561C99.0305 233.561 98.6385 233.663 98.4145 233.869C98.1905 234.065 98.0785 234.293 98.0785 234.555C98.0785 234.769 98.1579 234.947 98.3165 235.087C98.4752 235.227 98.6712 235.339 98.9045 235.423C99.1379 235.507 99.4645 235.6 99.8845 235.703C100.463 235.852 100.935 236.001 101.299 236.151C101.663 236.291 101.971 236.51 102.223 236.809C102.484 237.098 102.615 237.485 102.615 237.971C102.615 238.727 102.339 239.296 101.789 239.679C101.247 240.052 100.524 240.239 99.6185 240.239ZM105.765 240.225C105.261 240.225 104.892 240.075 104.659 239.777C104.425 239.478 104.309 239.109 104.309 238.671V233.729H103.413V232.707H104.323L104.589 230.663H105.541V232.707H106.787V233.729H105.541V238.559C105.541 238.997 105.746 239.217 106.157 239.217H106.787V240.029C106.665 240.085 106.507 240.131 106.311 240.169C106.115 240.206 105.933 240.225 105.765 240.225ZM110.249 240.239C109.512 240.239 108.942 240.043 108.541 239.651C108.149 239.249 107.953 238.61 107.953 237.733V232.707H109.185V237.649C109.185 238.237 109.316 238.647 109.577 238.881C109.838 239.105 110.216 239.217 110.711 239.217C111.066 239.217 111.392 239.133 111.691 238.965C111.99 238.787 112.228 238.535 112.405 238.209C112.582 237.882 112.671 237.499 112.671 237.061V232.707H113.903V240.071H112.965L112.825 239.077H112.727C112.186 239.851 111.36 240.239 110.249 240.239ZM118.238 240.239C117.305 240.239 116.586 239.926 116.082 239.301C115.578 238.675 115.326 237.705 115.326 236.389C115.326 235.101 115.574 234.139 116.068 233.505C116.572 232.861 117.258 232.539 118.126 232.539C118.649 232.539 119.092 232.618 119.456 232.777C119.82 232.935 120.124 233.192 120.366 233.547H120.45V229.949H121.682V240.071H120.758L120.604 239.077H120.52C120.278 239.459 119.956 239.749 119.554 239.945C119.162 240.141 118.724 240.239 118.238 240.239ZM118.546 239.217C119.209 239.217 119.69 238.983 119.988 238.517C120.296 238.05 120.45 237.359 120.45 236.445V236.389C120.45 235.455 120.296 234.751 119.988 234.275C119.68 233.799 119.2 233.561 118.546 233.561C118.08 233.561 117.702 233.654 117.412 233.841C117.132 234.018 116.927 234.312 116.796 234.723C116.666 235.133 116.6 235.689 116.6 236.389V236.445C116.6 237.135 116.666 237.681 116.796 238.083C116.927 238.484 117.132 238.773 117.412 238.951C117.692 239.128 118.07 239.217 118.546 239.217ZM126.676 240.239C125.49 240.239 124.608 239.926 124.03 239.301C123.451 238.675 123.162 237.705 123.162 236.389C123.162 235.073 123.451 234.102 124.03 233.477C124.608 232.851 125.49 232.539 126.676 232.539C127.74 232.539 128.533 232.823 129.056 233.393C129.588 233.953 129.854 234.858 129.854 236.109V236.725H124.436C124.482 237.574 124.683 238.204 125.038 238.615C125.402 239.016 125.948 239.217 126.676 239.217C127.264 239.217 127.74 239.081 128.104 238.811C128.468 238.54 128.65 238.125 128.65 237.565H129.854C129.854 238.423 129.555 239.086 128.958 239.553C128.37 240.01 127.609 240.239 126.676 240.239ZM128.566 235.703C128.566 234.275 127.936 233.561 126.676 233.561C125.976 233.561 125.448 233.729 125.094 234.065C124.748 234.401 124.538 234.947 124.464 235.703H128.566ZM131.333 232.707H132.271L132.411 233.701H132.509C133.05 232.926 133.876 232.539 134.987 232.539C135.724 232.539 136.289 232.739 136.681 233.141C137.082 233.533 137.283 234.167 137.283 235.045V240.071H136.051V235.129C136.051 234.541 135.92 234.135 135.659 233.911C135.398 233.677 135.02 233.561 134.525 233.561C134.17 233.561 133.844 233.649 133.545 233.827C133.246 233.995 133.008 234.242 132.831 234.569C132.654 234.895 132.565 235.278 132.565 235.717V240.071H131.333V232.707ZM140.778 240.225C140.274 240.225 139.906 240.075 139.672 239.777C139.439 239.478 139.322 239.109 139.322 238.671V233.729H138.426V232.707H139.336L139.602 230.663H140.554V232.707H141.8V233.729H140.554V238.559C140.554 238.997 140.76 239.217 141.17 239.217H141.8V240.029C141.679 240.085 141.52 240.131 141.324 240.169C141.128 240.206 140.946 240.225 140.778 240.225ZM143.415 231.979H142.855V230.467H144.255V231.853L143.583 233.855H142.855L143.415 231.979ZM148.386 240.239C147.705 240.239 147.135 240.141 146.678 239.945C146.23 239.739 145.899 239.473 145.684 239.147C145.469 238.82 145.362 238.465 145.362 238.083C145.362 237.971 145.362 237.896 145.362 237.859C145.371 237.812 145.376 237.784 145.376 237.775H146.594V237.915C146.594 238.353 146.767 238.685 147.112 238.909C147.457 239.123 147.905 239.231 148.456 239.231C148.932 239.231 149.324 239.137 149.632 238.951C149.949 238.755 150.108 238.484 150.108 238.139C150.108 237.868 150.019 237.649 149.842 237.481C149.665 237.303 149.445 237.168 149.184 237.075C148.923 236.972 148.568 236.865 148.12 236.753C147.579 236.613 147.135 236.473 146.79 236.333C146.454 236.193 146.165 235.987 145.922 235.717C145.689 235.437 145.572 235.077 145.572 234.639C145.572 233.995 145.833 233.486 146.356 233.113C146.888 232.73 147.602 232.539 148.498 232.539C149.058 232.539 149.543 232.632 149.954 232.819C150.365 232.996 150.673 233.239 150.878 233.547C151.093 233.845 151.2 234.181 151.2 234.555L151.186 234.821H149.982V234.695C149.982 234.368 149.851 234.097 149.59 233.883C149.338 233.668 148.927 233.561 148.358 233.561C147.798 233.561 147.406 233.663 147.182 233.869C146.958 234.065 146.846 234.293 146.846 234.555C146.846 234.769 146.925 234.947 147.084 235.087C147.243 235.227 147.439 235.339 147.672 235.423C147.905 235.507 148.232 235.6 148.652 235.703C149.231 235.852 149.702 236.001 150.066 236.151C150.43 236.291 150.738 236.51 150.99 236.809C151.251 237.098 151.382 237.485 151.382 237.971C151.382 238.727 151.107 239.296 150.556 239.679C150.015 240.052 149.291 240.239 148.386 240.239ZM156.931 230.467H158.121L163.189 237.159L163.525 237.607L163.581 237.593V236.949V230.467H164.827V240.071H163.693L158.597 233.295L158.233 232.805L158.177 232.819V233.393V240.071H156.931V230.467ZM167.034 230.467H173.838V231.629H168.364V234.681H173.334V235.843H168.364V240.071H167.034V230.467ZM179.821 240.239C178.271 240.239 177.105 239.828 176.321 239.007C175.537 238.176 175.145 236.93 175.145 235.269C175.145 233.607 175.537 232.366 176.321 231.545C177.105 230.714 178.271 230.299 179.821 230.299C181.071 230.299 182.07 230.611 182.817 231.237C183.573 231.853 183.951 232.753 183.951 233.939H182.593C182.593 233.117 182.345 232.497 181.851 232.077C181.365 231.647 180.689 231.433 179.821 231.433C178.691 231.433 177.861 231.731 177.329 232.329C176.797 232.926 176.526 233.897 176.517 235.241V235.269C176.517 236.622 176.783 237.602 177.315 238.209C177.847 238.806 178.682 239.105 179.821 239.105C180.707 239.105 181.398 238.895 181.893 238.475C182.397 238.055 182.649 237.439 182.649 236.627H183.951C183.951 237.821 183.577 238.722 182.831 239.329C182.084 239.935 181.081 240.239 179.821 240.239ZM192.547 240.239C191.361 240.239 190.479 239.926 189.901 239.301C189.322 238.675 189.033 237.705 189.033 236.389C189.033 235.073 189.322 234.102 189.901 233.477C190.479 232.851 191.361 232.539 192.547 232.539C193.611 232.539 194.404 232.823 194.927 233.393C195.459 233.953 195.725 234.858 195.725 236.109V236.725H190.307C190.353 237.574 190.554 238.204 190.909 238.615C191.273 239.016 191.819 239.217 192.547 239.217C193.135 239.217 193.611 239.081 193.975 238.811C194.339 238.54 194.521 238.125 194.521 237.565H195.725C195.725 238.423 195.426 239.086 194.829 239.553C194.241 240.01 193.48 240.239 192.547 240.239ZM194.437 235.703C194.437 234.275 193.807 233.561 192.547 233.561C191.847 233.561 191.319 233.729 190.965 234.065C190.619 234.401 190.409 234.947 190.335 235.703H194.437ZM197.204 232.707H198.142L198.282 233.701H198.38C198.921 232.926 199.747 232.539 200.858 232.539C201.595 232.539 202.16 232.739 202.552 233.141C202.953 233.533 203.154 234.167 203.154 235.045V240.071H201.922V235.129C201.922 234.541 201.791 234.135 201.53 233.911C201.269 233.677 200.891 233.561 200.396 233.561C200.041 233.561 199.715 233.649 199.416 233.827C199.117 233.995 198.879 234.242 198.702 234.569C198.525 234.895 198.436 235.278 198.436 235.717V240.071H197.204V232.707ZM206.985 240.239C206.351 240.239 205.786 240.089 205.291 239.791C204.797 239.492 204.549 238.951 204.549 238.167C204.549 237.224 204.969 236.58 205.809 236.235C206.649 235.88 207.863 235.703 209.449 235.703V234.891C209.449 234.461 209.328 234.135 209.085 233.911C208.843 233.677 208.404 233.561 207.769 233.561C207.172 233.561 206.743 233.673 206.481 233.897C206.229 234.121 206.103 234.396 206.103 234.723V234.891H204.913C204.904 234.835 204.899 234.732 204.899 234.583C204.899 233.929 205.17 233.425 205.711 233.071C206.253 232.716 206.976 232.539 207.881 232.539C208.796 232.539 209.491 232.73 209.967 233.113C210.443 233.495 210.681 234.037 210.681 234.737V238.727C210.681 238.895 210.728 239.021 210.821 239.105C210.915 239.179 211.031 239.217 211.171 239.217H211.731V240.015C211.489 240.127 211.171 240.183 210.779 240.183C210.462 240.183 210.196 240.089 209.981 239.903C209.767 239.707 209.622 239.45 209.547 239.133H209.449C209.197 239.478 208.852 239.749 208.413 239.945C207.984 240.141 207.508 240.239 206.985 240.239ZM207.307 239.217C207.671 239.217 208.017 239.142 208.343 238.993C208.67 238.843 208.936 238.624 209.141 238.335C209.347 238.036 209.449 237.677 209.449 237.257V236.725C208.245 236.725 207.34 236.823 206.733 237.019C206.136 237.205 205.837 237.565 205.837 238.097C205.837 238.498 205.959 238.787 206.201 238.965C206.453 239.133 206.822 239.217 207.307 239.217ZM216.207 240.239C215.721 240.239 215.278 240.141 214.877 239.945C214.485 239.749 214.167 239.459 213.925 239.077H213.841L213.687 240.071H212.763V229.949H213.995V233.547H214.079C214.321 233.192 214.625 232.935 214.989 232.777C215.353 232.618 215.796 232.539 216.319 232.539C217.187 232.539 217.868 232.861 218.363 233.505C218.867 234.139 219.119 235.101 219.119 236.389C219.119 237.705 218.867 238.675 218.363 239.301C217.859 239.926 217.14 240.239 216.207 240.239ZM215.899 239.217C216.375 239.217 216.753 239.128 217.033 238.951C217.313 238.773 217.518 238.484 217.649 238.083C217.779 237.681 217.845 237.135 217.845 236.445V236.389C217.845 235.689 217.779 235.133 217.649 234.723C217.518 234.312 217.308 234.018 217.019 233.841C216.739 233.654 216.365 233.561 215.899 233.561C215.245 233.561 214.765 233.799 214.457 234.275C214.149 234.751 213.995 235.455 213.995 236.389V236.445C213.995 237.359 214.144 238.05 214.443 238.517C214.751 238.983 215.236 239.217 215.899 239.217ZM220.542 229.949H221.774V240.071H220.542V229.949ZM226.767 240.239C225.582 240.239 224.7 239.926 224.121 239.301C223.543 238.675 223.253 237.705 223.253 236.389C223.253 235.073 223.543 234.102 224.121 233.477C224.7 232.851 225.582 232.539 226.767 232.539C227.831 232.539 228.625 232.823 229.147 233.393C229.679 233.953 229.945 234.858 229.945 236.109V236.725H224.527C224.574 237.574 224.775 238.204 225.129 238.615C225.493 239.016 226.039 239.217 226.767 239.217C227.355 239.217 227.831 239.081 228.195 238.811C228.559 238.54 228.741 238.125 228.741 237.565H229.945C229.945 238.423 229.647 239.086 229.049 239.553C228.461 240.01 227.701 240.239 226.767 240.239ZM228.657 235.703C228.657 234.275 228.027 233.561 226.767 233.561C226.067 233.561 225.54 233.729 225.185 234.065C224.84 234.401 224.63 234.947 224.555 235.703H228.657ZM233.889 240.239C232.955 240.239 232.237 239.926 231.733 239.301C231.229 238.675 230.977 237.705 230.977 236.389C230.977 235.101 231.224 234.139 231.719 233.505C232.223 232.861 232.909 232.539 233.777 232.539C234.299 232.539 234.743 232.618 235.107 232.777C235.471 232.935 235.774 233.192 236.017 233.547H236.101V229.949H237.333V240.071H236.409L236.255 239.077H236.171C235.928 239.459 235.606 239.749 235.205 239.945C234.813 240.141 234.374 240.239 233.889 240.239ZM234.197 239.217C234.859 239.217 235.34 238.983 235.639 238.517C235.947 238.05 236.101 237.359 236.101 236.445V236.389C236.101 235.455 235.947 234.751 235.639 234.275C235.331 233.799 234.85 233.561 234.197 233.561C233.73 233.561 233.352 233.654 233.063 233.841C232.783 234.018 232.577 234.312 232.447 234.723C232.316 235.133 232.251 235.689 232.251 236.389V236.445C232.251 237.135 232.316 237.681 232.447 238.083C232.577 238.484 232.783 238.773 233.063 238.951C233.343 239.128 233.721 239.217 234.197 239.217ZM245.9 240.239C244.78 240.239 243.959 239.931 243.436 239.315C242.914 238.689 242.652 237.714 242.652 236.389C242.652 235.073 242.914 234.102 243.436 233.477C243.968 232.851 244.79 232.539 245.9 232.539C246.908 232.539 247.646 232.781 248.112 233.267C248.579 233.752 248.812 234.475 248.812 235.437H247.552C247.552 234.774 247.431 234.298 247.188 234.009C246.955 233.71 246.526 233.561 245.9 233.561C245.219 233.561 244.72 233.785 244.402 234.233C244.085 234.671 243.926 235.39 243.926 236.389V236.445C243.926 237.434 244.08 238.143 244.388 238.573C244.696 239.002 245.2 239.217 245.9 239.217C246.516 239.217 246.955 239.063 247.216 238.755C247.487 238.437 247.622 237.966 247.622 237.341H248.812C248.812 238.181 248.574 238.876 248.098 239.427C247.622 239.968 246.89 240.239 245.9 240.239ZM252.102 240.239C251.468 240.239 250.903 240.089 250.408 239.791C249.914 239.492 249.666 238.951 249.666 238.167C249.666 237.224 250.086 236.58 250.926 236.235C251.766 235.88 252.98 235.703 254.566 235.703V234.891C254.566 234.461 254.445 234.135 254.202 233.911C253.96 233.677 253.521 233.561 252.886 233.561C252.289 233.561 251.86 233.673 251.598 233.897C251.346 234.121 251.22 234.396 251.22 234.723V234.891H250.03C250.021 234.835 250.016 234.732 250.016 234.583C250.016 233.929 250.287 233.425 250.828 233.071C251.37 232.716 252.093 232.539 252.998 232.539C253.913 232.539 254.608 232.73 255.084 233.113C255.56 233.495 255.798 234.037 255.798 234.737V238.727C255.798 238.895 255.845 239.021 255.938 239.105C256.032 239.179 256.148 239.217 256.288 239.217H256.848V240.015C256.606 240.127 256.288 240.183 255.896 240.183C255.579 240.183 255.313 240.089 255.098 239.903C254.884 239.707 254.739 239.45 254.664 239.133H254.566C254.314 239.478 253.969 239.749 253.53 239.945C253.101 240.141 252.625 240.239 252.102 240.239ZM252.424 239.217C252.788 239.217 253.134 239.142 253.46 238.993C253.787 238.843 254.053 238.624 254.258 238.335C254.464 238.036 254.566 237.677 254.566 237.257V236.725C253.362 236.725 252.457 236.823 251.85 237.019C251.253 237.205 250.954 237.565 250.954 238.097C250.954 238.498 251.076 238.787 251.318 238.965C251.57 239.133 251.939 239.217 252.424 239.217ZM257.88 232.707H258.818L258.958 233.813H259.042C259.182 233.449 259.392 233.145 259.672 232.903C259.952 232.66 260.32 232.539 260.778 232.539C261.03 232.539 261.249 232.576 261.436 232.651V233.841H260.918C260.395 233.841 259.961 233.995 259.616 234.303C259.28 234.601 259.112 235.073 259.112 235.717V240.071H257.88V232.707ZM265.006 240.239C264.073 240.239 263.354 239.926 262.85 239.301C262.346 238.675 262.094 237.705 262.094 236.389C262.094 235.101 262.341 234.139 262.836 233.505C263.34 232.861 264.026 232.539 264.894 232.539C265.417 232.539 265.86 232.618 266.224 232.777C266.588 232.935 266.891 233.192 267.134 233.547H267.218V229.949H268.45V240.071H267.526L267.372 239.077H267.288C267.045 239.459 266.723 239.749 266.322 239.945C265.93 240.141 265.491 240.239 265.006 240.239ZM265.314 239.217C265.977 239.217 266.457 238.983 266.756 238.517C267.064 238.05 267.218 237.359 267.218 236.445V236.389C267.218 235.455 267.064 234.751 266.756 234.275C266.448 233.799 265.967 233.561 265.314 233.561C264.847 233.561 264.469 233.654 264.18 233.841C263.9 234.018 263.695 234.312 263.564 234.723C263.433 235.133 263.368 235.689 263.368 236.389V236.445C263.368 237.135 263.433 237.681 263.564 238.083C263.695 238.484 263.9 238.773 264.18 238.951C264.46 239.128 264.838 239.217 265.314 239.217ZM32.4296 258.239C31.795 258.239 31.2303 258.089 30.7356 257.791C30.241 257.492 29.9936 256.951 29.9936 256.167C29.9936 255.224 30.4136 254.58 31.2536 254.235C32.0936 253.88 33.307 253.703 34.8936 253.703V252.891C34.8936 252.461 34.7723 252.135 34.5296 251.911C34.287 251.677 33.8483 251.561 33.2136 251.561C32.6163 251.561 32.187 251.673 31.9256 251.897C31.6736 252.121 31.5476 252.396 31.5476 252.723V252.891H30.3576C30.3483 252.835 30.3436 252.732 30.3436 252.583C30.3436 251.929 30.6143 251.425 31.1556 251.071C31.697 250.716 32.4203 250.539 33.3256 250.539C34.2403 250.539 34.9356 250.73 35.4116 251.113C35.8876 251.495 36.1256 252.037 36.1256 252.737V256.727C36.1256 256.895 36.1723 257.021 36.2656 257.105C36.359 257.179 36.4756 257.217 36.6156 257.217H37.1756V258.015C36.933 258.127 36.6156 258.183 36.2236 258.183C35.9063 258.183 35.6403 258.089 35.4256 257.903C35.211 257.707 35.0663 257.45 34.9916 257.133H34.8936C34.6416 257.478 34.2963 257.749 33.8576 257.945C33.4283 258.141 32.9523 258.239 32.4296 258.239ZM32.7516 257.217C33.1156 257.217 33.461 257.142 33.7876 256.993C34.1143 256.843 34.3803 256.624 34.5856 256.335C34.791 256.036 34.8936 255.677 34.8936 255.257V254.725C33.6896 254.725 32.7843 254.823 32.1776 255.019C31.5803 255.205 31.2816 255.565 31.2816 256.097C31.2816 256.498 31.403 256.787 31.6456 256.965C31.8976 257.133 32.2663 257.217 32.7516 257.217ZM39.5229 260.619C38.9816 260.619 38.5103 260.479 38.1089 260.199C37.7169 259.928 37.5209 259.475 37.5209 258.841C37.5209 258.075 37.9176 257.553 38.7109 257.273C38.4869 257.151 38.3003 256.997 38.1509 256.811C38.0109 256.615 37.9409 256.391 37.9409 256.139C37.9409 255.775 38.0669 255.499 38.3189 255.313C38.5803 255.126 38.8649 254.995 39.1729 254.921C38.8649 254.697 38.6223 254.421 38.4449 254.095C38.2676 253.768 38.1789 253.409 38.1789 253.017C38.1789 252.233 38.4449 251.626 38.9769 251.197C39.5089 250.758 40.2369 250.539 41.1609 250.539C41.6743 250.539 42.1409 250.623 42.5609 250.791C43.1676 250.501 43.5223 250.077 43.6249 249.517H44.8009C44.8009 249.955 44.6703 250.333 44.4089 250.651C44.1569 250.968 43.8116 251.178 43.3729 251.281C43.8956 251.747 44.1569 252.326 44.1569 253.017C44.1569 253.801 43.8863 254.412 43.3449 254.851C42.8129 255.28 42.0849 255.495 41.1609 255.495H39.9849C39.7329 255.495 39.5369 255.551 39.3969 255.663C39.2663 255.775 39.2009 255.919 39.2009 256.097C39.2009 256.274 39.2663 256.419 39.3969 256.531C39.5369 256.643 39.7329 256.699 39.9849 256.699H42.9389C43.5176 256.699 43.9749 256.876 44.3109 257.231C44.6469 257.576 44.8149 257.996 44.8149 258.491C44.8149 258.845 44.7356 259.186 44.5769 259.513C44.4183 259.839 44.1616 260.105 43.8069 260.311C43.4616 260.516 43.0229 260.619 42.4909 260.619H39.5229ZM41.1749 254.543C41.7536 254.543 42.1923 254.412 42.4909 254.151C42.7896 253.88 42.9389 253.502 42.9389 253.017C42.9389 252.531 42.7896 252.158 42.4909 251.897C42.1923 251.626 41.7536 251.491 41.1749 251.491C40.5963 251.491 40.1576 251.626 39.8589 251.897C39.5603 252.158 39.4109 252.531 39.4109 253.017C39.4109 253.502 39.5603 253.88 39.8589 254.151C40.1576 254.412 40.5963 254.543 41.1749 254.543ZM42.5189 259.625C42.8269 259.625 43.0836 259.541 43.2889 259.373C43.4943 259.205 43.5969 258.981 43.5969 258.701C43.5969 258.421 43.5129 258.201 43.3449 258.043C43.1863 257.875 42.9716 257.791 42.7009 257.791H39.6349C39.3643 257.791 39.1496 257.875 38.9909 258.043C38.8323 258.201 38.7529 258.421 38.7529 258.701C38.7529 258.981 38.8323 259.205 38.9909 259.373C39.1496 259.541 39.3643 259.625 39.6349 259.625H42.5189ZM47.9882 258.239C47.3536 258.239 46.7889 258.089 46.2942 257.791C45.7996 257.492 45.5522 256.951 45.5522 256.167C45.5522 255.224 45.9722 254.58 46.8122 254.235C47.6522 253.88 48.8656 253.703 50.4522 253.703V252.891C50.4522 252.461 50.3309 252.135 50.0882 251.911C49.8456 251.677 49.4069 251.561 48.7722 251.561C48.1749 251.561 47.7456 251.673 47.4842 251.897C47.2322 252.121 47.1062 252.396 47.1062 252.723V252.891H45.9162C45.9069 252.835 45.9022 252.732 45.9022 252.583C45.9022 251.929 46.1729 251.425 46.7142 251.071C47.2556 250.716 47.9789 250.539 48.8842 250.539C49.7989 250.539 50.4942 250.73 50.9702 251.113C51.4462 251.495 51.6842 252.037 51.6842 252.737V256.727C51.6842 256.895 51.7309 257.021 51.8242 257.105C51.9176 257.179 52.0342 257.217 52.1742 257.217H52.7342V258.015C52.4916 258.127 52.1742 258.183 51.7822 258.183C51.4649 258.183 51.1989 258.089 50.9842 257.903C50.7696 257.707 50.6249 257.45 50.5502 257.133H50.4522C50.2002 257.478 49.8549 257.749 49.4162 257.945C48.9869 258.141 48.5109 258.239 47.9882 258.239ZM48.3102 257.217C48.6742 257.217 49.0196 257.142 49.3462 256.993C49.6729 256.843 49.9389 256.624 50.1442 256.335C50.3496 256.036 50.4522 255.677 50.4522 255.257V254.725C49.2482 254.725 48.3429 254.823 47.7362 255.019C47.1389 255.205 46.8402 255.565 46.8402 256.097C46.8402 256.498 46.9616 256.787 47.2042 256.965C47.4562 257.133 47.8249 257.217 48.3102 257.217ZM53.7655 247.949H54.9835V249.279H53.7655V247.949ZM53.7655 250.707H54.9975V258.071H53.7655V250.707ZM56.869 250.707H57.807L57.947 251.701H58.045C58.5864 250.926 59.4124 250.539 60.523 250.539C61.2604 250.539 61.825 250.739 62.217 251.141C62.6184 251.533 62.819 252.167 62.819 253.045V258.071H61.587V253.129C61.587 252.541 61.4564 252.135 61.195 251.911C60.9337 251.677 60.5557 251.561 60.061 251.561C59.7064 251.561 59.3797 251.649 59.081 251.827C58.7824 251.995 58.5444 252.242 58.367 252.569C58.1897 252.895 58.101 253.278 58.101 253.717V258.071H56.869V250.707ZM67.1683 258.239C66.487 258.239 65.9177 258.141 65.4603 257.945C65.0123 257.739 64.681 257.473 64.4663 257.147C64.2517 256.82 64.1443 256.465 64.1443 256.083C64.1443 255.971 64.1443 255.896 64.1443 255.859C64.1537 255.812 64.1583 255.784 64.1583 255.775H65.3763V255.915C65.3763 256.353 65.549 256.685 65.8943 256.909C66.2397 257.123 66.6877 257.231 67.2383 257.231C67.7143 257.231 68.1063 257.137 68.4143 256.951C68.7317 256.755 68.8903 256.484 68.8903 256.139C68.8903 255.868 68.8017 255.649 68.6243 255.481C68.447 255.303 68.2277 255.168 67.9663 255.075C67.705 254.972 67.3503 254.865 66.9023 254.753C66.361 254.613 65.9177 254.473 65.5723 254.333C65.2363 254.193 64.947 253.987 64.7043 253.717C64.471 253.437 64.3543 253.077 64.3543 252.639C64.3543 251.995 64.6157 251.486 65.1383 251.113C65.6703 250.73 66.3843 250.539 67.2803 250.539C67.8403 250.539 68.3257 250.632 68.7363 250.819C69.147 250.996 69.455 251.239 69.6603 251.547C69.875 251.845 69.9823 252.181 69.9823 252.555L69.9683 252.821H68.7643V252.695C68.7643 252.368 68.6337 252.097 68.3723 251.883C68.1203 251.668 67.7097 251.561 67.1403 251.561C66.5803 251.561 66.1883 251.663 65.9643 251.869C65.7403 252.065 65.6283 252.293 65.6283 252.555C65.6283 252.769 65.7077 252.947 65.8663 253.087C66.025 253.227 66.221 253.339 66.4543 253.423C66.6877 253.507 67.0143 253.6 67.4343 253.703C68.013 253.852 68.4843 254.001 68.8483 254.151C69.2123 254.291 69.5203 254.51 69.7723 254.809C70.0337 255.098 70.1643 255.485 70.1643 255.971C70.1643 256.727 69.889 257.296 69.3383 257.679C68.797 258.052 68.0737 258.239 67.1683 258.239ZM73.3143 258.225C72.8103 258.225 72.4417 258.075 72.2083 257.777C71.975 257.478 71.8583 257.109 71.8583 256.671V251.729H70.9623V250.707H71.8723L72.1383 248.663H73.0903V250.707H74.3363V251.729H73.0903V256.559C73.0903 256.997 73.2957 257.217 73.7063 257.217H74.3363V258.029C74.215 258.085 74.0563 258.131 73.8603 258.169C73.6643 258.206 73.4823 258.225 73.3143 258.225ZM81.1073 258.225C80.6033 258.225 80.2346 258.075 80.0013 257.777C79.768 257.478 79.6513 257.109 79.6513 256.671V251.729H78.7553V250.707H79.6653L79.9313 248.663H80.8833V250.707H82.1293V251.729H80.8833V256.559C80.8833 256.997 81.0886 257.217 81.4993 257.217H82.1293V258.029C82.008 258.085 81.8493 258.131 81.6533 258.169C81.4573 258.206 81.2753 258.225 81.1073 258.225ZM83.3378 247.949H84.5698V251.533H84.6678C85.1811 250.87 85.9558 250.539 86.9918 250.539C88.5224 250.539 89.2878 251.374 89.2878 253.045V258.071H88.0558V253.129C88.0558 252.541 87.9251 252.135 87.6638 251.911C87.4024 251.677 87.0244 251.561 86.5298 251.561C86.1751 251.561 85.8484 251.649 85.5498 251.827C85.2511 251.995 85.0131 252.242 84.8358 252.569C84.6584 252.895 84.5698 253.278 84.5698 253.717V258.071H83.3378V247.949ZM94.2391 258.239C93.0537 258.239 92.1717 257.926 91.5931 257.301C91.0144 256.675 90.7251 255.705 90.7251 254.389C90.7251 253.073 91.0144 252.102 91.5931 251.477C92.1717 250.851 93.0537 250.539 94.2391 250.539C95.3031 250.539 96.0964 250.823 96.6191 251.393C97.1511 251.953 97.4171 252.858 97.4171 254.109V254.725H91.9991C92.0457 255.574 92.2464 256.204 92.6011 256.615C92.9651 257.016 93.5111 257.217 94.2391 257.217C94.8271 257.217 95.3031 257.081 95.6671 256.811C96.0311 256.54 96.2131 256.125 96.2131 255.565H97.4171C97.4171 256.423 97.1184 257.086 96.5211 257.553C95.9331 258.01 95.1724 258.239 94.2391 258.239ZM96.1291 253.703C96.1291 252.275 95.4991 251.561 94.2391 251.561C93.5391 251.561 93.0117 251.729 92.6571 252.065C92.3117 252.401 92.1017 252.947 92.0271 253.703H96.1291ZM106.237 258.239C105.752 258.239 105.308 258.141 104.907 257.945C104.515 257.749 104.198 257.459 103.955 257.077H103.871L103.717 258.071H102.793V247.949H104.025V251.547H104.109C104.352 251.192 104.655 250.935 105.019 250.777C105.383 250.618 105.826 250.539 106.349 250.539C107.217 250.539 107.898 250.861 108.393 251.505C108.897 252.139 109.149 253.101 109.149 254.389C109.149 255.705 108.897 256.675 108.393 257.301C107.889 257.926 107.17 258.239 106.237 258.239ZM105.929 257.217C106.405 257.217 106.783 257.128 107.063 256.951C107.343 256.773 107.548 256.484 107.679 256.083C107.81 255.681 107.875 255.135 107.875 254.445V254.389C107.875 253.689 107.81 253.133 107.679 252.723C107.548 252.312 107.338 252.018 107.049 251.841C106.769 251.654 106.396 251.561 105.929 251.561C105.276 251.561 104.795 251.799 104.487 252.275C104.179 252.751 104.025 253.455 104.025 254.389V254.445C104.025 255.359 104.174 256.05 104.473 256.517C104.781 256.983 105.266 257.217 105.929 257.217ZM112.574 258.239C111.939 258.239 111.375 258.089 110.88 257.791C110.385 257.492 110.138 256.951 110.138 256.167C110.138 255.224 110.558 254.58 111.398 254.235C112.238 253.88 113.451 253.703 115.038 253.703V252.891C115.038 252.461 114.917 252.135 114.674 251.911C114.431 251.677 113.993 251.561 113.358 251.561C112.761 251.561 112.331 251.673 112.07 251.897C111.818 252.121 111.692 252.396 111.692 252.723V252.891H110.502C110.493 252.835 110.488 252.732 110.488 252.583C110.488 251.929 110.759 251.425 111.3 251.071C111.841 250.716 112.565 250.539 113.47 250.539C114.385 250.539 115.08 250.73 115.556 251.113C116.032 251.495 116.27 252.037 116.27 252.737V256.727C116.27 256.895 116.317 257.021 116.41 257.105C116.503 257.179 116.62 257.217 116.76 257.217H117.32V258.015C117.077 258.127 116.76 258.183 116.368 258.183C116.051 258.183 115.785 258.089 115.57 257.903C115.355 257.707 115.211 257.45 115.136 257.133H115.038C114.786 257.478 114.441 257.749 114.002 257.945C113.573 258.141 113.097 258.239 112.574 258.239ZM112.896 257.217C113.26 257.217 113.605 257.142 113.932 256.993C114.259 256.843 114.525 256.624 114.73 256.335C114.935 256.036 115.038 255.677 115.038 255.257V254.725C113.834 254.725 112.929 254.823 112.322 255.019C111.725 255.205 111.426 255.565 111.426 256.097C111.426 256.498 111.547 256.787 111.79 256.965C112.042 257.133 112.411 257.217 112.896 257.217ZM121.151 258.239C120.031 258.239 119.21 257.931 118.687 257.315C118.165 256.689 117.903 255.714 117.903 254.389C117.903 253.073 118.165 252.102 118.687 251.477C119.219 250.851 120.041 250.539 121.151 250.539C122.159 250.539 122.897 250.781 123.363 251.267C123.83 251.752 124.063 252.475 124.063 253.437H122.803C122.803 252.774 122.682 252.298 122.439 252.009C122.206 251.71 121.777 251.561 121.151 251.561C120.47 251.561 119.971 251.785 119.653 252.233C119.336 252.671 119.177 253.39 119.177 254.389V254.445C119.177 255.434 119.331 256.143 119.639 256.573C119.947 257.002 120.451 257.217 121.151 257.217C121.767 257.217 122.206 257.063 122.467 256.755C122.738 256.437 122.873 255.966 122.873 255.341H124.063C124.063 256.181 123.825 256.876 123.349 257.427C122.873 257.968 122.141 258.239 121.151 258.239ZM125.351 247.949H126.583V254.319L129.705 250.707H131.231L128.697 253.605L131.371 258.071H129.943L127.927 254.487L126.583 255.761V258.071H125.351V247.949ZM139.202 258.239C138.073 258.239 137.223 257.926 136.654 257.301C136.085 256.666 135.8 255.695 135.8 254.389C135.8 253.082 136.085 252.116 136.654 251.491C137.223 250.856 138.073 250.539 139.202 250.539C140.331 250.539 141.181 250.856 141.75 251.491C142.319 252.116 142.604 253.082 142.604 254.389C142.604 255.695 142.319 256.666 141.75 257.301C141.181 257.926 140.331 258.239 139.202 258.239ZM139.202 257.217C139.949 257.217 140.49 257.002 140.826 256.573C141.162 256.134 141.33 255.425 141.33 254.445V254.333C141.33 253.353 141.162 252.648 140.826 252.219C140.49 251.78 139.949 251.561 139.202 251.561C138.455 251.561 137.914 251.78 137.578 252.219C137.242 252.648 137.074 253.353 137.074 254.333V254.445C137.074 255.425 137.242 256.134 137.578 256.573C137.914 257.002 138.455 257.217 139.202 257.217ZM144.293 251.729H143.215V250.707H144.293V249.531C144.293 249.045 144.415 248.644 144.657 248.327C144.9 248 145.311 247.837 145.889 247.837C146.076 247.837 146.263 247.855 146.449 247.893C146.645 247.921 146.809 247.958 146.939 248.005V248.859H146.211C145.754 248.859 145.525 249.083 145.525 249.531V250.707H146.939V251.729H145.525V258.071H144.293V251.729ZM152.52 260.619C152.11 260.619 151.783 260.581 151.54 260.507V259.709H152.03C152.982 259.709 153.608 259.163 153.906 258.071L151.064 250.707H152.366L153.738 254.389C153.934 254.911 154.2 255.681 154.536 256.699H154.606C154.877 255.747 155.106 254.977 155.292 254.389L156.468 250.707H157.7L155.278 257.693C154.952 258.626 154.578 259.345 154.158 259.849C153.748 260.362 153.202 260.619 152.52 260.619ZM161.774 258.239C160.645 258.239 159.796 257.926 159.226 257.301C158.657 256.666 158.372 255.695 158.372 254.389C158.372 253.082 158.657 252.116 159.226 251.491C159.796 250.856 160.645 250.539 161.774 250.539C162.904 250.539 163.753 250.856 164.322 251.491C164.892 252.116 165.176 253.082 165.176 254.389C165.176 255.695 164.892 256.666 164.322 257.301C163.753 257.926 162.904 258.239 161.774 258.239ZM161.774 257.217C162.521 257.217 163.062 257.002 163.398 256.573C163.734 256.134 163.902 255.425 163.902 254.445V254.333C163.902 253.353 163.734 252.648 163.398 252.219C163.062 251.78 162.521 251.561 161.774 251.561C161.028 251.561 160.486 251.78 160.15 252.219C159.814 252.648 159.646 253.353 159.646 254.333V254.445C159.646 255.425 159.814 256.134 160.15 256.573C160.486 257.002 161.028 257.217 161.774 257.217ZM168.853 258.239C168.116 258.239 167.547 258.043 167.145 257.651C166.753 257.249 166.557 256.61 166.557 255.733V250.707H167.789V255.649C167.789 256.237 167.92 256.647 168.181 256.881C168.443 257.105 168.821 257.217 169.315 257.217C169.67 257.217 169.997 257.133 170.295 256.965C170.594 256.787 170.832 256.535 171.009 256.209C171.187 255.882 171.275 255.499 171.275 255.061V250.707H172.507V258.071H171.569L171.429 257.077H171.331C170.79 257.851 169.964 258.239 168.853 258.239ZM174.379 250.707H175.317L175.457 251.813H175.541C175.681 251.449 175.891 251.145 176.171 250.903C176.451 250.66 176.819 250.539 177.277 250.539C177.529 250.539 177.748 250.576 177.935 250.651V251.841H177.417C176.894 251.841 176.46 251.995 176.115 252.303C175.779 252.601 175.611 253.073 175.611 253.717V258.071H174.379V250.707ZM182.937 250.707H183.861L184.015 251.701H184.099C184.342 251.318 184.659 251.029 185.051 250.833C185.453 250.637 185.896 250.539 186.381 250.539C187.315 250.539 188.033 250.851 188.537 251.477C189.041 252.102 189.293 253.073 189.293 254.389C189.293 255.677 189.041 256.643 188.537 257.287C188.043 257.921 187.361 258.239 186.493 258.239C185.971 258.239 185.527 258.159 185.163 258.001C184.799 257.842 184.496 257.585 184.253 257.231H184.169V260.493H182.937V250.707ZM186.073 257.217C186.549 257.217 186.927 257.128 187.207 256.951C187.487 256.773 187.693 256.484 187.823 256.083C187.954 255.681 188.019 255.135 188.019 254.445V254.389C188.019 253.689 187.954 253.133 187.823 252.723C187.693 252.312 187.483 252.018 187.193 251.841C186.913 251.654 186.54 251.561 186.073 251.561C185.42 251.561 184.939 251.799 184.631 252.275C184.323 252.751 184.169 253.455 184.169 254.389V254.445C184.169 255.359 184.319 256.05 184.617 256.517C184.925 256.983 185.411 257.217 186.073 257.217ZM190.717 247.949H191.949V251.533H192.047C192.56 250.87 193.335 250.539 194.371 250.539C195.901 250.539 196.667 251.374 196.667 253.045V258.071H195.435V253.129C195.435 252.541 195.304 252.135 195.043 251.911C194.781 251.677 194.403 251.561 193.909 251.561C193.554 251.561 193.227 251.649 192.929 251.827C192.63 251.995 192.392 252.242 192.215 252.569C192.037 252.895 191.949 253.278 191.949 253.717V258.071H190.717V247.949ZM201.45 258.239C200.321 258.239 199.471 257.926 198.902 257.301C198.333 256.666 198.048 255.695 198.048 254.389C198.048 253.082 198.333 252.116 198.902 251.491C199.471 250.856 200.321 250.539 201.45 250.539C202.579 250.539 203.429 250.856 203.998 251.491C204.567 252.116 204.852 253.082 204.852 254.389C204.852 255.695 204.567 256.666 203.998 257.301C203.429 257.926 202.579 258.239 201.45 258.239ZM201.45 257.217C202.197 257.217 202.738 257.002 203.074 256.573C203.41 256.134 203.578 255.425 203.578 254.445V254.333C203.578 253.353 203.41 252.648 203.074 252.219C202.738 251.78 202.197 251.561 201.45 251.561C200.703 251.561 200.162 251.78 199.826 252.219C199.49 252.648 199.322 253.353 199.322 254.333V254.445C199.322 255.425 199.49 256.134 199.826 256.573C200.162 257.002 200.703 257.217 201.45 257.217ZM206.275 250.707H207.213L207.353 251.701H207.451C207.993 250.926 208.819 250.539 209.929 250.539C210.667 250.539 211.231 250.739 211.623 251.141C212.025 251.533 212.225 252.167 212.225 253.045V258.071H210.993V253.129C210.993 252.541 210.863 252.135 210.601 251.911C210.34 251.677 209.962 251.561 209.467 251.561C209.113 251.561 208.786 251.649 208.487 251.827C208.189 251.995 207.951 252.242 207.773 252.569C207.596 252.895 207.507 253.278 207.507 253.717V258.071H206.275V250.707ZM217.177 258.239C215.991 258.239 215.109 257.926 214.531 257.301C213.952 256.675 213.663 255.705 213.663 254.389C213.663 253.073 213.952 252.102 214.531 251.477C215.109 250.851 215.991 250.539 217.177 250.539C218.241 250.539 219.034 250.823 219.557 251.393C220.089 251.953 220.355 252.858 220.355 254.109V254.725H214.937C214.983 255.574 215.184 256.204 215.539 256.615C215.903 257.016 216.449 257.217 217.177 257.217C217.765 257.217 218.241 257.081 218.605 256.811C218.969 256.54 219.151 256.125 219.151 255.565H220.355C220.355 256.423 220.056 257.086 219.459 257.553C218.871 258.01 218.11 258.239 217.177 258.239ZM219.067 253.703C219.067 252.275 218.437 251.561 217.177 251.561C216.477 251.561 215.949 251.729 215.595 252.065C215.249 252.401 215.039 252.947 214.965 253.703H219.067ZM227.396 258.225C226.892 258.225 226.524 258.075 226.29 257.777C226.057 257.478 225.94 257.109 225.94 256.671V251.729H225.044V250.707H225.954L226.22 248.663H227.172V250.707H228.418V251.729H227.172V256.559C227.172 256.997 227.378 257.217 227.788 257.217H228.418V258.029C228.297 258.085 228.138 258.131 227.942 258.169C227.746 258.206 227.564 258.225 227.396 258.225ZM232.581 258.239C231.452 258.239 230.602 257.926 230.033 257.301C229.464 256.666 229.179 255.695 229.179 254.389C229.179 253.082 229.464 252.116 230.033 251.491C230.602 250.856 231.452 250.539 232.581 250.539C233.71 250.539 234.56 250.856 235.129 251.491C235.698 252.116 235.983 253.082 235.983 254.389C235.983 255.695 235.698 256.666 235.129 257.301C234.56 257.926 233.71 258.239 232.581 258.239ZM232.581 257.217C233.328 257.217 233.869 257.002 234.205 256.573C234.541 256.134 234.709 255.425 234.709 254.445V254.333C234.709 253.353 234.541 252.648 234.205 252.219C233.869 251.78 233.328 251.561 232.581 251.561C231.834 251.561 231.293 251.78 230.957 252.219C230.621 252.648 230.453 253.353 230.453 254.333V254.445C230.453 255.425 230.621 256.134 230.957 256.573C231.293 257.002 231.834 257.217 232.581 257.217ZM240.547 250.707H241.849L243.151 254.389C243.337 254.911 243.58 255.681 243.879 256.699H243.949C244.219 255.737 244.457 254.967 244.663 254.389L245.951 250.707H247.183L244.481 258.071H243.249L240.547 250.707ZM251.425 258.239C250.239 258.239 249.357 257.926 248.779 257.301C248.2 256.675 247.911 255.705 247.911 254.389C247.911 253.073 248.2 252.102 248.779 251.477C249.357 250.851 250.239 250.539 251.425 250.539C252.489 250.539 253.282 250.823 253.805 251.393C254.337 251.953 254.603 252.858 254.603 254.109V254.725H249.185C249.231 255.574 249.432 256.204 249.787 256.615C250.151 257.016 250.697 257.217 251.425 257.217C252.013 257.217 252.489 257.081 252.853 256.811C253.217 256.54 253.399 256.125 253.399 255.565H254.603C254.603 256.423 254.304 257.086 253.707 257.553C253.119 258.01 252.358 258.239 251.425 258.239ZM253.315 253.703C253.315 252.275 252.685 251.561 251.425 251.561C250.725 251.561 250.197 251.729 249.843 252.065C249.497 252.401 249.287 252.947 249.213 253.703H253.315ZM256.082 250.707H257.02L257.16 251.813H257.244C257.384 251.449 257.594 251.145 257.874 250.903C258.154 250.66 258.523 250.539 258.98 250.539C259.232 250.539 259.451 250.576 259.638 250.651V251.841H259.12C258.597 251.841 258.163 251.995 257.818 252.303C257.482 252.601 257.314 253.073 257.314 253.717V258.071H256.082V250.707ZM260.744 247.949H261.962V249.279H260.744V247.949ZM260.744 250.707H261.976V258.071H260.744V250.707ZM264.114 251.729H263.036V250.707H264.114V249.531C264.114 249.045 264.235 248.644 264.478 248.327C264.72 248 265.131 247.837 265.71 247.837C265.896 247.837 266.083 247.855 266.27 247.893C266.466 247.921 266.629 247.958 266.76 248.005V248.859H266.032C265.574 248.859 265.346 249.083 265.346 249.531V250.707H266.76V251.729H265.346V258.071H264.114V251.729ZM268.444 260.619C268.033 260.619 267.707 260.581 267.464 260.507V259.709H267.954C268.906 259.709 269.531 259.163 269.83 258.071L266.988 250.707H268.29L269.662 254.389C269.858 254.911 270.124 255.681 270.46 256.699H270.53C270.801 255.747 271.029 254.977 271.216 254.389L272.392 250.707H273.624L271.202 257.693C270.875 258.626 270.502 259.345 270.082 259.849C269.671 260.362 269.125 260.619 268.444 260.619ZM94.0751 276.225C93.5711 276.225 93.2024 276.075 92.9691 275.777C92.7357 275.478 92.6191 275.109 92.6191 274.671V269.729H91.7231V268.707H92.6331L92.8991 266.663H93.8511V268.707H95.0971V269.729H93.8511V274.559C93.8511 274.997 94.0564 275.217 94.4671 275.217H95.0971V276.029C94.9757 276.085 94.8171 276.131 94.6211 276.169C94.4251 276.206 94.2431 276.225 94.0751 276.225ZM96.3056 265.949H97.5376V269.533H97.6356C98.1489 268.87 98.9236 268.539 99.9596 268.539C101.49 268.539 102.256 269.374 102.256 271.045V276.071H101.024V271.129C101.024 270.541 100.893 270.135 100.632 269.911C100.37 269.677 99.9922 269.561 99.4976 269.561C99.1429 269.561 98.8162 269.649 98.5176 269.827C98.2189 269.995 97.9809 270.242 97.8036 270.569C97.6262 270.895 97.5376 271.278 97.5376 271.717V276.071H96.3056V265.949ZM107.207 276.239C106.022 276.239 105.14 275.926 104.561 275.301C103.982 274.675 103.693 273.705 103.693 272.389C103.693 271.073 103.982 270.102 104.561 269.477C105.14 268.851 106.022 268.539 107.207 268.539C108.271 268.539 109.064 268.823 109.587 269.393C110.119 269.953 110.385 270.858 110.385 272.109V272.725H104.967C105.014 273.574 105.214 274.204 105.569 274.615C105.933 275.016 106.479 275.217 107.207 275.217C107.795 275.217 108.271 275.081 108.635 274.811C108.999 274.54 109.181 274.125 109.181 273.565H110.385C110.385 274.423 110.086 275.086 109.489 275.553C108.901 276.01 108.14 276.239 107.207 276.239ZM109.097 271.703C109.097 270.275 108.467 269.561 107.207 269.561C106.507 269.561 105.98 269.729 105.625 270.065C105.28 270.401 105.07 270.947 104.995 271.703H109.097ZM118.281 276.239C117.599 276.239 117.03 276.141 116.573 275.945C116.125 275.739 115.793 275.473 115.579 275.147C115.364 274.82 115.257 274.465 115.257 274.083C115.257 273.971 115.257 273.896 115.257 273.859C115.266 273.812 115.271 273.784 115.271 273.775H116.489V273.915C116.489 274.353 116.661 274.685 117.007 274.909C117.352 275.123 117.8 275.231 118.351 275.231C118.827 275.231 119.219 275.137 119.527 274.951C119.844 274.755 120.003 274.484 120.003 274.139C120.003 273.868 119.914 273.649 119.737 273.481C119.559 273.303 119.34 273.168 119.079 273.075C118.817 272.972 118.463 272.865 118.015 272.753C117.473 272.613 117.03 272.473 116.685 272.333C116.349 272.193 116.059 271.987 115.817 271.717C115.583 271.437 115.467 271.077 115.467 270.639C115.467 269.995 115.728 269.486 116.251 269.113C116.783 268.73 117.497 268.539 118.393 268.539C118.953 268.539 119.438 268.632 119.849 268.819C120.259 268.996 120.567 269.239 120.773 269.547C120.987 269.845 121.095 270.181 121.095 270.555L121.081 270.821H119.877V270.695C119.877 270.368 119.746 270.097 119.485 269.883C119.233 269.668 118.822 269.561 118.253 269.561C117.693 269.561 117.301 269.663 117.077 269.869C116.853 270.065 116.741 270.293 116.741 270.555C116.741 270.769 116.82 270.947 116.979 271.087C117.137 271.227 117.333 271.339 117.567 271.423C117.8 271.507 118.127 271.6 118.547 271.703C119.125 271.852 119.597 272.001 119.961 272.151C120.325 272.291 120.633 272.51 120.885 272.809C121.146 273.098 121.277 273.485 121.277 273.971C121.277 274.727 121.001 275.296 120.451 275.679C119.909 276.052 119.186 276.239 118.281 276.239ZM124.427 276.225C123.923 276.225 123.554 276.075 123.321 275.777C123.087 275.478 122.971 275.109 122.971 274.671V269.729H122.075V268.707H122.985L123.251 266.663H124.203V268.707H125.449V269.729H124.203V274.559C124.203 274.997 124.408 275.217 124.819 275.217H125.449V276.029C125.327 276.085 125.169 276.131 124.973 276.169C124.777 276.206 124.595 276.225 124.427 276.225ZM128.911 276.239C128.174 276.239 127.604 276.043 127.203 275.651C126.811 275.249 126.615 274.61 126.615 273.733V268.707H127.847V273.649C127.847 274.237 127.978 274.647 128.239 274.881C128.5 275.105 128.878 275.217 129.373 275.217C129.728 275.217 130.054 275.133 130.353 274.965C130.652 274.787 130.89 274.535 131.067 274.209C131.244 273.882 131.333 273.499 131.333 273.061V268.707H132.565V276.071H131.627L131.487 275.077H131.389C130.848 275.851 130.022 276.239 128.911 276.239ZM136.9 276.239C135.967 276.239 135.248 275.926 134.744 275.301C134.24 274.675 133.988 273.705 133.988 272.389C133.988 271.101 134.236 270.139 134.73 269.505C135.234 268.861 135.92 268.539 136.788 268.539C137.311 268.539 137.754 268.618 138.118 268.777C138.482 268.935 138.786 269.192 139.028 269.547H139.112V265.949H140.344V276.071H139.42L139.266 275.077H139.182C138.94 275.459 138.618 275.749 138.216 275.945C137.824 276.141 137.386 276.239 136.9 276.239ZM137.208 275.217C137.871 275.217 138.352 274.983 138.65 274.517C138.958 274.05 139.112 273.359 139.112 272.445V272.389C139.112 271.455 138.958 270.751 138.65 270.275C138.342 269.799 137.862 269.561 137.208 269.561C136.742 269.561 136.364 269.654 136.074 269.841C135.794 270.018 135.589 270.312 135.458 270.723C135.328 271.133 135.262 271.689 135.262 272.389V272.445C135.262 273.135 135.328 273.681 135.458 274.083C135.589 274.484 135.794 274.773 136.074 274.951C136.354 275.128 136.732 275.217 137.208 275.217ZM145.338 276.239C144.152 276.239 143.27 275.926 142.692 275.301C142.113 274.675 141.824 273.705 141.824 272.389C141.824 271.073 142.113 270.102 142.692 269.477C143.27 268.851 144.152 268.539 145.338 268.539C146.402 268.539 147.195 268.823 147.718 269.393C148.25 269.953 148.516 270.858 148.516 272.109V272.725H143.098C143.144 273.574 143.345 274.204 143.7 274.615C144.064 275.016 144.61 275.217 145.338 275.217C145.926 275.217 146.402 275.081 146.766 274.811C147.13 274.54 147.312 274.125 147.312 273.565H148.516C148.516 274.423 148.217 275.086 147.62 275.553C147.032 276.01 146.271 276.239 145.338 276.239ZM147.228 271.703C147.228 270.275 146.598 269.561 145.338 269.561C144.638 269.561 144.11 269.729 143.756 270.065C143.41 270.401 143.2 270.947 143.126 271.703H147.228ZM149.995 268.707H150.933L151.073 269.701H151.171C151.712 268.926 152.538 268.539 153.649 268.539C154.386 268.539 154.951 268.739 155.343 269.141C155.744 269.533 155.945 270.167 155.945 271.045V276.071H154.713V271.129C154.713 270.541 154.582 270.135 154.321 269.911C154.06 269.677 153.682 269.561 153.187 269.561C152.832 269.561 152.506 269.649 152.207 269.827C151.908 269.995 151.67 270.242 151.493 270.569C151.316 270.895 151.227 271.278 151.227 271.717V276.071H149.995V268.707ZM159.44 276.225C158.936 276.225 158.568 276.075 158.334 275.777C158.101 275.478 157.984 275.109 157.984 274.671V269.729H157.088V268.707H157.998L158.264 266.663H159.216V268.707H160.462V269.729H159.216V274.559C159.216 274.997 159.422 275.217 159.832 275.217H160.462V276.029C160.341 276.085 160.182 276.131 159.986 276.169C159.79 276.206 159.608 276.225 159.44 276.225ZM165.567 265.949H166.785V267.279H165.567V265.949ZM165.567 268.707H166.799V276.071H165.567V268.707ZM171.135 276.239C170.201 276.239 169.483 275.926 168.979 275.301C168.475 274.675 168.223 273.705 168.223 272.389C168.223 271.101 168.47 270.139 168.965 269.505C169.469 268.861 170.155 268.539 171.023 268.539C171.545 268.539 171.989 268.618 172.353 268.777C172.717 268.935 173.02 269.192 173.263 269.547H173.347V265.949H174.579V276.071H173.655L173.501 275.077H173.417C173.174 275.459 172.852 275.749 172.451 275.945C172.059 276.141 171.62 276.239 171.135 276.239ZM171.443 275.217C172.105 275.217 172.586 274.983 172.885 274.517C173.193 274.05 173.347 273.359 173.347 272.445V272.389C173.347 271.455 173.193 270.751 172.885 270.275C172.577 269.799 172.096 269.561 171.443 269.561C170.976 269.561 170.598 269.654 170.309 269.841C170.029 270.018 169.823 270.312 169.693 270.723C169.562 271.133 169.497 271.689 169.497 272.389V272.445C169.497 273.135 169.562 273.681 169.693 274.083C169.823 274.484 170.029 274.773 170.309 274.951C170.589 275.128 170.967 275.217 171.443 275.217ZM179.572 276.239C178.387 276.239 177.505 275.926 176.926 275.301C176.347 274.675 176.058 273.705 176.058 272.389C176.058 271.073 176.347 270.102 176.926 269.477C177.505 268.851 178.387 268.539 179.572 268.539C180.636 268.539 181.429 268.823 181.952 269.393C182.484 269.953 182.75 270.858 182.75 272.109V272.725H177.332C177.379 273.574 177.579 274.204 177.934 274.615C178.298 275.016 178.844 275.217 179.572 275.217C180.16 275.217 180.636 275.081 181 274.811C181.364 274.54 181.546 274.125 181.546 273.565H182.75C182.75 274.423 182.451 275.086 181.854 275.553C181.266 276.01 180.505 276.239 179.572 276.239ZM181.462 271.703C181.462 270.275 180.832 269.561 179.572 269.561C178.872 269.561 178.345 269.729 177.99 270.065C177.645 270.401 177.435 270.947 177.36 271.703H181.462ZM184.229 268.707H185.167L185.307 269.701H185.405C185.947 268.926 186.773 268.539 187.883 268.539C188.621 268.539 189.185 268.739 189.577 269.141C189.979 269.533 190.179 270.167 190.179 271.045V276.071H188.947V271.129C188.947 270.541 188.817 270.135 188.555 269.911C188.294 269.677 187.916 269.561 187.421 269.561C187.067 269.561 186.74 269.649 186.441 269.827C186.143 269.995 185.905 270.242 185.727 270.569C185.55 270.895 185.461 271.278 185.461 271.717V276.071H184.229V268.707ZM193.675 276.225C193.171 276.225 192.802 276.075 192.569 275.777C192.335 275.478 192.219 275.109 192.219 274.671V269.729H191.323V268.707H192.233L192.499 266.663H193.451V268.707H194.697V269.729H193.451V274.559C193.451 274.997 193.656 275.217 194.067 275.217H194.697V276.029C194.575 276.085 194.417 276.131 194.221 276.169C194.025 276.206 193.843 276.225 193.675 276.225ZM195.905 265.949H197.123V267.279H195.905V265.949ZM195.905 268.707H197.137V276.071H195.905V268.707ZM200.675 276.225C200.171 276.225 199.802 276.075 199.569 275.777C199.335 275.478 199.219 275.109 199.219 274.671V269.729H198.323V268.707H199.233L199.499 266.663H200.451V268.707H201.697V269.729H200.451V274.559C200.451 274.997 200.656 275.217 201.067 275.217H201.697V276.029C201.575 276.085 201.417 276.131 201.221 276.169C201.025 276.206 200.843 276.225 200.675 276.225ZM203.605 278.619C203.194 278.619 202.868 278.581 202.625 278.507V277.709H203.115C204.067 277.709 204.692 277.163 204.991 276.071L202.149 268.707H203.451L204.823 272.389C205.019 272.911 205.285 273.681 205.621 274.699H205.691C205.962 273.747 206.19 272.977 206.377 272.389L207.553 268.707H208.785L206.363 275.693C206.036 276.626 205.663 277.345 205.243 277.849C204.832 278.362 204.286 278.619 203.605 278.619ZM209.202 274.559H210.602V276.071H209.202V274.559Z" fill="#4D4D4D"/>
<defs>
<clipPath id="clip0_185_1030">
<rect width="12.6792" height="16" fill="white" transform="translate(10 134)"/>
</clipPath>
</defs>
</svg>
