<svg width="194" height="193" viewBox="0 0 194 193" fill="none" xmlns="http://www.w3.org/2000/svg">
<g clip-path="url(#clip0_284_1861)">
<path d="M96.6478 192.852C149.902 192.852 193.074 149.681 193.074 96.4261C193.074 43.1714 149.902 0 96.6478 0C43.3931 0 0.22168 43.1714 0.22168 96.4261C0.22168 149.681 43.3931 192.852 96.6478 192.852Z" fill="#EAEEF5"/>
<path fill-rule="evenodd" clip-rule="evenodd" d="M40.7094 149.483L162.886 132.478L163.268 160.965L40.7094 149.483Z" fill="#373535" fill-opacity="0.301961"/>
<path fill-rule="evenodd" clip-rule="evenodd" d="M35.4884 47.2163L146.538 38.6741C155.739 37.9663 163.268 44.9602 163.268 54.2167V129.596C163.268 135.535 158.437 140.766 152.533 141.22L44.3193 149.543C33.5574 150.371 24.7524 142.191 24.7524 131.366V58.8408C24.7524 52.9017 29.5834 47.6703 35.4876 47.2163H35.4884Z" fill="#F4F4F5" fill-opacity="0.901961" stroke="#24282F" stroke-opacity="0.901961" stroke-width="0.358326" stroke-miterlimit="22.9256"/>
<path fill-rule="evenodd" clip-rule="evenodd" d="M40.3842 50.3326L152.911 43.3493C158.607 42.9958 163.268 47.3849 163.268 53.1027V131.48C163.268 137.198 158.608 142.166 152.911 142.52L40.3842 149.503C34.6883 149.856 30.0276 145.467 30.0276 139.749V61.3718C30.0276 55.654 34.6883 50.686 40.3842 50.3326Z" fill="#F4F4F5" fill-opacity="0.901961" stroke="#24282F" stroke-opacity="0.901961" stroke-width="0.358326" stroke-miterlimit="22.9256"/>
<g clip-path="url(#clip1_284_1861)">
<path fill-rule="evenodd" clip-rule="evenodd" d="M41.4021 124.048C41.4715 124.048 41.4561 124.063 41.4407 123.987L41.5023 123.933C41.5717 123.94 41.5486 123.948 41.5178 123.871L41.5332 123.81C41.5948 123.818 41.5794 123.833 41.5717 123.779L41.6334 123.764C41.7027 123.787 41.695 123.81 41.6873 123.741C41.8029 123.695 41.7027 123.748 41.7413 123.679C41.8184 123.687 41.8029 123.71 41.8029 123.641C42.5044 123.357 43.121 124.048 42.8127 124.709C42.6893 124.978 42.5198 125.223 42.3887 125.508C41.6102 127.228 41.2942 128.365 41.1324 130.417C40.9628 132.568 41.5332 134.742 42.3733 136.586C42.6123 137.116 43.2058 137.746 42.6739 138.322C42.4735 138.545 42.0727 138.629 41.7567 138.468C41.4792 138.329 41.379 138.053 41.2172 137.776C40.9628 137.331 40.6391 136.609 40.4541 136.086C39.4521 133.29 39.244 130.47 39.9839 127.567C40.2614 126.468 40.7932 124.985 41.3867 124.048H41.4021Z" fill="#003366"/>
<path fill-rule="evenodd" clip-rule="evenodd" d="M45.7571 126.053C45.6569 126.422 45.048 127.106 44.6009 129.018C44.0768 131.254 44.493 133.766 45.5952 135.733C45.7262 135.963 45.8727 136.201 45.7417 136.539C45.6415 136.793 45.4719 136.954 45.1944 137.031C44.5315 137.216 44.2849 136.616 44.0768 136.217C43.0362 134.212 42.5892 132.007 42.936 129.418C43.1518 127.797 43.6143 126.86 44.2541 125.592C44.7705 124.57 45.9883 125.223 45.7648 126.045L45.7571 126.053Z" fill="#003366"/>
<path fill-rule="evenodd" clip-rule="evenodd" d="M48.2312 133.82C48.2929 133.958 48.3545 134.043 48.4162 134.181L48.6012 134.496C48.6012 134.488 48.6166 134.511 48.6166 134.519C48.8555 135.579 47.63 135.963 47.1444 135.095C45.8418 132.76 45.6491 130.255 46.7205 127.843C46.8438 127.559 47.1136 127.044 47.26 126.844C47.4681 126.568 48 126.445 48.3622 126.721C48.6783 126.967 48.763 127.397 48.501 127.82C47.9152 128.765 47.5067 130.248 47.6223 131.438C47.7533 132.752 47.8227 132.706 48.2235 133.828L48.2312 133.82Z" fill="#003366"/>
<path fill-rule="evenodd" clip-rule="evenodd" d="M51.4223 128.85C51.3915 129.141 51.1526 129.364 51.0138 129.633C50.8674 129.91 50.7672 130.156 50.7132 130.486C50.5668 131.323 50.7518 132.222 51.1988 132.821C51.5457 133.282 51.4763 133.759 51.0986 134.004C50.4049 134.45 49.9887 133.874 49.7189 133.42C49.1254 132.391 48.8634 130.939 49.3181 129.633C49.4954 129.126 49.8114 128.412 50.166 128.143C50.6978 127.736 51.484 128.189 51.4146 128.857L51.4223 128.85Z" fill="#003366"/>
<path fill-rule="evenodd" clip-rule="evenodd" d="M48.6244 134.519C48.6167 134.511 48.609 134.488 48.609 134.496L48.424 134.181C48.3623 134.043 48.3007 133.966 48.239 133.82C48.3469 133.92 48.4009 134.097 48.4934 134.266L48.6321 134.519H48.6244Z" fill="#777777"/>
<path fill-rule="evenodd" clip-rule="evenodd" d="M41.7567 123.687C41.7259 123.756 41.8184 123.702 41.7028 123.748C41.7105 123.818 41.7182 123.794 41.6488 123.771L41.5871 123.787C41.5949 123.841 41.6026 123.833 41.5486 123.818L41.5332 123.879C41.5563 123.956 41.5871 123.948 41.5178 123.94L41.4561 123.994C41.4715 124.071 41.4869 124.056 41.4176 124.056C41.4176 123.979 41.3945 123.987 41.4561 123.994L41.5178 123.94L41.5332 123.879C41.5101 123.802 41.4792 123.81 41.5486 123.818C41.5409 123.756 41.5255 123.771 41.5871 123.787L41.6488 123.771L41.7028 123.748L41.7567 123.687C41.749 123.625 41.7413 123.649 41.8184 123.649C41.8184 123.718 41.8338 123.702 41.7567 123.687Z" fill="#777777"/>
</g>
</g>
<defs>
<clipPath id="clip0_284_1861">
<rect width="192.852" height="192.852" fill="white" transform="translate(0.22168)"/>
</clipPath>
<clipPath id="clip1_284_1861">
<rect width="11.87" height="14.9788" fill="white" transform="translate(39.5411 123.575)"/>
</clipPath>
</defs>
</svg>
